
<svg width="190px" height="48px" viewBox="0 0 190 48" version="1.1" xmlns="http://www.w3.org/2000/svg" xmlns:xlink="http://www.w3.org/1999/xlink">
    <defs>
        <polygon id="path-1" points="0 0.0901775856 0 47.8315387 63.3273925 47.8315387 63.3273925 0.0901775856"></polygon>
    </defs>
    <g id="Symbols" stroke="none" stroke-width="1" fill="none" fill-rule="evenodd">
        <g id="Organisms-/-Nav-bar-/-Home-/-Not-Logged" transform="translate(-32.000000, -16.000000)">
            <g id="Stacked-Group" transform="translate(32.000000, 16.000000)">
                <g id="Atoms-/-Logos-/-Freesound">
                    <g id="Logo">
                        <path d="M74.5756603,25.0061979 L74.5756603,20.9831242 L74.5618748,20.97824 C74.1592371,20.8330611 73.3907791,20.7673768 72.8469241,20.7673768 C71.8281414,20.7673768 70.8752603,21.0580716 70.0913357,21.6077979 C69.340698,22.1341137 68.8082748,22.8692716 68.591069,23.6785347 L68.3585646,23.6785347 L68.3585646,21.0370189 L64.0919501,21.0370189 L64.0919501,37.6332295 L68.4933936,37.6332295 L68.4933936,28.4419874 C68.4933936,26.18464 70.0612429,24.7261137 72.4873241,24.7261137 C73.1814748,24.7261137 74.2017704,24.8593347 74.5470806,24.9950821 L74.5756603,25.0061979 Z" id="Fill-1" fill="#141424"></path>
                        <path d="M78.8587501,27.5806147 C78.9357472,26.5422989 79.3114864,25.6619621 79.9464603,25.0334147 C80.5858052,24.4004884 81.445382,24.0658358 82.4315501,24.0658358 C84.4477646,24.0658358 85.7580603,25.4120253 85.8553994,27.5806147 L78.8587501,27.5806147 Z M82.4167559,20.6768674 C80.0005936,20.6768674 77.9852197,21.4881516 76.5885125,23.0229726 C75.1931501,24.5567832 74.4557936,26.7676463 74.4557936,29.4177516 C74.4557936,32.0604463 75.1881067,34.2413305 76.5737183,35.7244463 C77.9606748,37.2089095 80.0017704,37.9934147 82.4766052,37.9934147 C84.4586922,37.9934147 86.207098,37.5201516 87.5331965,36.6241516 C88.8524023,35.7326989 89.721898,34.4466358 90.0475386,32.9042358 L90.0529183,32.8788042 L85.9532429,32.8788042 L85.9478632,32.8914358 C85.4836951,33.9865095 84.2936023,34.5896253 82.5964719,34.5896253 C80.3403559,34.5896253 78.9017878,33.0679411 78.8421067,30.6184253 L78.8421067,30.4144674 L90.1827038,30.4144674 L90.1827038,29.0576674 C90.1827038,26.4745937 89.4730864,24.3428884 88.1303443,22.8934568 C86.7872661,21.4433516 84.8113994,20.6768674 82.4167559,20.6768674 Z" id="Fill-3" fill="#141424"></path>
                        <path d="M95.2539884,27.5806147 C95.3309855,26.5422989 95.7065565,25.6619621 96.3416986,25.0334147 C96.9810435,24.4004884 97.8406203,24.0658358 98.8267884,24.0658358 C100.842835,24.0658358 102.153299,25.4120253 102.25047,27.5806147 L95.2539884,27.5806147 Z M98.8118261,20.6768674 C96.3958319,20.6768674 94.380458,21.4881516 92.9835826,23.0229726 C91.5882203,24.5567832 90.8510319,26.7676463 90.8510319,29.4177516 C90.8510319,32.0604463 91.5831768,34.2413305 92.9687884,35.7244463 C94.355913,37.2089095 96.3970087,37.9934147 98.8718435,37.9934147 C100.85393,37.9934147 102.602336,37.5201516 103.928435,36.6241516 C105.247472,35.7326989 106.116968,34.4466358 106.442777,32.9042358 L106.448157,32.8788042 L102.348313,32.8788042 L102.343101,32.8914358 C101.878765,33.9865095 100.688841,34.5896253 98.991542,34.5896253 C96.7355942,34.5896253 95.2970261,33.0679411 95.2373449,30.6184253 L95.2373449,30.4144674 L106.577942,30.4144674 L106.577942,29.0576674 C106.577942,26.4745937 105.868325,24.3428884 104.525583,22.8934568 C103.182336,21.4433516 101.20647,20.6768674 98.8118261,20.6768674 Z" id="Fill-5" fill="#141424"></path>
                        <path d="M117.059164,27.9564463 L113.958434,27.2809095 C112.425721,26.9351411 111.742329,26.4322358 111.742329,25.6509305 C111.742329,24.62912 112.848868,23.9156884 114.433025,23.9156884 C115.999866,23.9156884 117.029744,24.5386779 117.258718,25.6249937 L117.262416,25.6414989 L121.331831,25.6414989 L121.33015,25.6189305 C121.210451,24.0374568 120.544712,22.8042779 119.351593,21.9544253 C118.160828,21.1065937 116.495976,20.6767832 114.402932,20.6767832 C110.277535,20.6767832 107.505808,22.7842358 107.505808,25.9207411 C107.505808,27.2096674 107.893651,28.2240674 108.691697,29.0218779 C109.482683,29.8126147 110.658486,30.3709305 112.286184,30.7289937 L115.282515,31.4041937 C116.711164,31.7142568 117.348323,32.2077305 117.348323,33.0045305 C117.348323,34.0514358 116.206816,34.7549305 114.507837,34.7549305 C112.809193,34.7549305 111.733251,34.1476042 111.396851,32.9988042 L111.392648,32.9836463 L107.099135,32.9836463 L107.101321,33.0065516 C107.250944,34.5954358 107.969303,35.8375411 109.235889,36.6990147 C110.498944,37.5579621 112.242474,37.9934989 114.418063,37.9934989 C118.785547,37.9934989 121.719842,35.7895411 121.719842,32.5095411 C121.719842,31.2606989 121.351332,30.2968253 120.593466,29.5641937 C119.846022,28.8408253 118.690057,28.3150147 117.059164,27.9564463" id="Fill-7" fill="#FF3546"></path>
                        <path d="M127.674593,25.6180379 C128.299144,24.7499958 129.226303,24.2912168 130.355874,24.2912168 C131.480234,24.2912168 132.405376,24.7499958 133.031608,25.6180379 C133.658848,26.4869221 133.990373,27.7697853 133.990373,29.32768 C133.990373,32.5382905 132.665451,34.3794695 130.355874,34.3794695 C129.201422,34.3794695 128.297463,33.9363537 127.669045,33.06208 C127.04046,32.1874695 126.721544,30.9313853 126.721544,29.32768 C126.721544,27.7672589 127.051051,26.4843958 127.674593,25.6180379 M130.355874,20.6769011 C127.87835,20.6769011 125.813886,21.4762274 124.385741,22.9893221 C122.956083,24.5037642 122.200234,26.6957642 122.200234,29.32768 C122.200234,34.7542063 125.249016,37.9934484 130.355874,37.9934484 C135.463068,37.9934484 138.511851,34.7542063 138.511851,29.32768 C138.511851,26.6900379 137.75617,24.4958484 136.326176,22.9835958 C134.900048,21.4745432 132.835416,20.6769011 130.355874,20.6769011" id="Fill-9" fill="#FF3546"></path>
                        <path d="M150.470392,30.6032337 C150.470392,32.8602442 149.260461,34.15456 147.15027,34.15456 C145.146496,34.15456 144.130235,33.0000337 144.130235,30.7233179 L144.130235,21.0370863 L139.729128,21.0370863 L139.729128,31.8490442 C139.729128,33.7319916 140.268444,35.2940968 141.289244,36.3659284 C142.302647,37.4310232 143.769963,37.9933811 145.532322,37.9933811 C147.925957,37.9933811 149.553824,36.9786442 150.370531,34.97696 L150.605053,34.97696 L150.605053,37.6332968 L154.872003,37.6332968 L154.872003,21.0370863 L150.470392,21.0370863 L150.470392,30.6032337 Z" id="Fill-11" fill="#FF3546"></path>
                        <path d="M166.464724,20.6768337 C164.110428,20.6768337 162.371437,21.7479916 161.567339,23.69376 L161.332312,23.69376 L161.332312,21.0370863 L157.066202,21.0370863 L157.066202,37.6332968 L161.467141,37.6332968 L161.467141,28.0669811 C161.467141,26.9980126 161.767733,26.0983074 162.336469,25.4642021 C162.910249,24.8243705 163.731663,24.4860126 164.712115,24.4860126 C165.725686,24.4860126 166.492631,24.78176 166.992272,25.3643284 C167.483507,25.9371284 167.732654,26.8060126 167.732654,27.9468968 L167.732654,37.6332968 L172.133762,37.6332968 L172.133762,26.9116126 C172.133762,22.8910653 170.120573,20.6768337 166.464724,20.6768337" id="Fill-13" fill="#FF3546"></path>
                        <path d="M181.657547,34.1994442 C179.335025,34.1994442 177.948573,32.3783074 177.948573,29.3276968 C177.948573,27.8442442 178.290857,26.6122442 178.938439,25.7647495 C179.58535,24.9186021 180.525622,24.4712758 181.657547,24.4712758 C183.955187,24.4712758 185.382323,26.3380547 185.382323,29.3425179 C185.382323,30.8269811 185.039199,32.0591495 184.390271,32.9058021 C183.741512,33.7521179 182.796532,34.1994442 181.657547,34.1994442 Z M185.337268,14.7188547 L185.337268,23.6785179 L185.117205,23.6785179 C184.260486,21.85536 182.414068,20.76736 180.174764,20.76736 C176.012381,20.76736 173.427094,24.0416337 173.427094,29.3128758 C173.427094,31.9112758 174.051309,34.0798653 175.232996,35.5843705 C176.417037,37.0917389 178.125767,37.8882021 180.174764,37.8882021 C182.455425,37.8882021 184.346393,36.8227705 185.236567,35.0370021 L185.471761,35.0370021 L185.471761,37.6332126 L189.738712,37.6332126 L189.738712,14.7188547 L185.337268,14.7188547 Z" id="Fill-15" fill="#FF3546"></path>
                        <g id="Group-19" transform="translate(0.000000, 0.078316)">
                            <mask id="mask-2" fill="white">
                                <use xlink:href="#path-1"></use>
                            </mask>
                            <g id="Clip-18"></g>
                            <path d="M63.3099084,14.6552589 C62.6429925,14.5442695 61.9068128,14.4903747 61.0591722,14.4903747 C57.1814099,14.4903747 55.3755084,16.0705011 55.3755084,19.4640168 L55.3755084,21.1239747 L52.2519142,21.1239747 C52.00512,21.1256589 51.7640417,21.1475537 51.5286794,21.1866274 C51.5224591,21.1876379 51.516407,21.1888168 51.5101867,21.1899958 C50.7602214,21.3174905 50.0701055,21.6218274 49.4556417,22.0272168 C48.6496939,22.5717221 47.9548707,23.3063747 47.5487026,24.2646905 L47.2262562,25.0397642 L46.0909693,27.7675116 L46.0413751,27.8865853 L45.2374446,21.9802274 L43.6862388,10.6190484 C43.6497577,10.3598484 43.6115954,10.1343326 43.5562852,9.91437474 C43.4959316,9.75117474 43.4285171,9.57938526 43.2585519,9.34561684 C43.1672649,9.22485895 43.0421867,9.08018526 42.8303606,8.93803789 C42.6229055,8.79740632 42.298778,8.66890105 41.9462388,8.67176421 C41.9100939,8.67159579 41.8744533,8.67294316 41.839149,8.67546947 C41.531833,8.69635368 41.2556186,8.80986947 41.0718678,8.93231158 C40.7080649,9.18039579 40.5871896,9.40490105 40.4856475,9.57365895 C40.2302794,10.0730274 40.1816939,10.4199747 40.090407,10.9368589 L36.5048301,34.1658274 L35.1240939,15.0608168 C35.0953461,14.6805221 35.0613867,14.3798905 34.9884243,14.0708379 C34.9468997,13.9105011 34.9087374,13.7523537 34.7765983,13.5044379 C34.7054852,13.3808168 34.6106678,13.2241853 34.4013635,13.0406063 C34.203491,12.8614063 33.8180012,12.6525642 33.3723258,12.6571116 C32.9337113,12.6554274 32.5821809,12.8440589 32.391033,12.9998484 C32.0505983,13.2866695 31.9767954,13.4852379 31.8917287,13.6410274 C31.6928475,14.0888589 31.6434214,14.4118905 31.5565055,14.9090695 L30.0787664,24.2436379 L27.7891954,2.43631158 C27.7485113,2.06073263 27.7058099,1.76397474 27.6252823,1.46199579 C27.5800591,1.30620632 27.5393751,1.15328 27.4063954,0.915806316 C27.3359548,0.797406316 27.2431548,0.647848421 27.0399026,0.470332632 C26.8470736,0.299048421 26.4718388,0.0873431579 26.0160765,0.0902063158 C25.5626678,0.0881852632 25.1934852,0.294332632 25.0006562,0.461237895 C24.6576997,0.770290526 24.5951606,0.972901053 24.5154736,1.13239579 C24.3355896,1.58730105 24.2991084,1.90982737 24.2305171,2.41205895 L20.3033287,35.2917221 L18.1393403,18.3787116 C18.0857113,17.9814063 18.0273751,17.6558484 17.8997751,17.3033432 C17.8303432,17.1249853 17.7538504,16.9346695 17.5558099,16.6852379 C17.3777751,16.4551747 16.9374794,16.0662905 16.2724128,16.0630905 C15.6253345,16.0708379 15.2196707,16.4181221 15.0357519,16.6261221 C14.7447432,16.9649853 14.6665693,17.2034695 14.5702388,17.4529011 C14.4833229,17.7003116 14.4192707,17.9542905 14.3600939,18.2431326 L12.4886272,27.4877642 L11.1479026,24.2641853 C10.7415664,23.3058695 10.0465751,22.5712168 9.24062725,22.02688 C8.42879536,21.4909642 7.48482435,21.1310484 6.4445229,21.1236379 L1.52309681,21.1236379 C0.681508406,21.1236379 -3.36231884e-05,21.8065853 -3.36231884e-05,22.6498695 C-3.36231884e-05,23.4916379 0.681508406,24.1745853 1.52309681,24.1745853 L6.4445229,24.1745853 C6.7145171,24.1680168 7.16775768,24.3037642 7.55089391,24.5658274 C7.9399142,24.8199747 8.2393287,25.1856168 8.33683594,25.4379116 L11.5890388,33.2541642 C11.8452475,33.8705853 12.4792128,34.2503747 13.1425983,34.1853642 C13.8059838,34.1205221 14.3538736,33.6248589 14.4860128,32.9707116 L15.9872881,25.5537853 L18.5423142,45.5253221 C18.5917403,45.9025853 18.6431838,46.2042274 18.737833,46.5149642 C18.7907896,46.6751326 18.8420649,46.8361432 18.9913519,47.0746274 C19.0703664,47.1928589 19.1762794,47.3400589 19.3839026,47.5027537 C19.5836243,47.6597221 19.9371722,47.8340379 20.34872,47.8315116 C20.7604359,47.8340379 21.117178,47.6597221 21.3179084,47.4995537 C21.6738099,47.2068379 21.7555142,46.9899116 21.8414214,46.8255326 C22.0440012,46.3489011 22.0794736,46.0184589 22.1497461,45.5105011 L25.9288243,13.8768168 L28.0097635,33.70048 C28.0516243,34.0834695 28.09752,34.3918484 28.1923374,34.7147116 C28.2444533,34.8799326 28.2965693,35.0500379 28.4544301,35.2982905 C28.5369751,35.4215747 28.649949,35.5745011 28.8634562,35.7355116 C29.0693983,35.8933221 29.4210968,36.0528168 29.8109577,36.0494484 C30.195607,36.0511326 30.5301577,35.9015747 30.7297113,35.7562274 C31.0849403,35.4906274 31.1856417,35.2769011 31.2796186,35.1142063 C31.5096012,34.6382484 31.5590272,34.3029221 31.6501461,33.7966484 L32.8689867,26.0987958 L34.265862,45.4291537 C34.2946099,45.8070905 34.3275606,46.1063747 34.3996823,46.4145853 C34.4403664,46.5723958 34.4780243,46.7293642 34.6071374,46.9750905 C34.677578,47.0992168 34.7695374,47.2546695 34.9771606,47.4402695 C35.1715026,47.6186274 35.5531258,47.8315116 36.001491,47.8315116 L36.0151084,47.8315116 C36.4621287,47.8323537 36.8165171,47.6376589 37.0066562,47.4790063 C37.2460533,47.2731958 37.3509577,47.11488 37.4213983,46.9848589 C37.4504823,46.9307958 37.4738504,46.8817853 37.4982272,46.8361432 C37.6918968,46.3915116 37.7396417,46.0710063 37.8248765,45.5738274 L39.5078852,34.6719326 L41.8369635,19.5847747 L42.5343084,24.6913011 L43.5423316,32.0733642 C43.6003316,32.4826274 43.6680823,32.8262063 43.8225809,33.2026274 C43.9061345,33.3917642 44.0058272,33.5995958 44.2326157,33.8446484 C44.4425925,34.0787537 44.8934794,34.3846063 45.4586852,34.3812379 C46.0015316,34.3795537 46.4001345,34.1206905 46.6121287,33.9226274 C46.6842504,33.8535747 46.745949,33.7875537 46.799578,33.7235537 C46.8345461,33.6871747 46.8680012,33.6491116 46.8994388,33.6093642 C46.9831606,33.5027537 47.0536012,33.3840168 47.1073983,33.2546695 L47.1622041,33.1227958 C47.1655664,33.1157221 47.1689287,33.1086484 47.1721229,33.1015747 C47.1949867,33.0495326 47.2161693,32.9971537 47.2365113,32.9444379 L47.8346678,31.5067958 L49.7632939,26.8711747 L49.7755664,26.8418695 L50.3596012,25.4384168 C50.4569403,25.1859537 50.7565229,24.8203116 51.1455432,24.5663326 C51.5231316,24.3079747 51.9686388,24.1727326 52.2396417,24.1752589 C52.2436765,24.1752589 52.2480475,24.1749221 52.2519142,24.1750905 L52.2589751,24.1750905 L52.4630678,24.1750905 L52.7088533,24.1750905 L52.7421403,24.1750905 L55.3124649,24.1750905 L55.3755084,24.1750905 L55.3755084,37.5549642 L59.7767838,37.5549642 L59.7767838,24.1750905 L63.1925635,24.1750905 L63.1925635,21.1239747 L59.6870099,21.1239747 L59.6870099,19.7789642 C59.6870099,18.3317221 60.3798157,17.7141221 62.0031432,17.7141221 C62.6014678,17.7141221 63.0760591,17.7649853 63.3041925,17.7892379 L63.3273925,17.7917642 L63.3273925,14.6586274 L63.3099084,14.6552589 Z" id="Fill-17" fill="#141424" mask="url(#mask-2)"></path>
                        </g>
                    </g>
                </g>
            </g>
        </g>
    </g>
</svg>