<?xml version="1.0" encoding="UTF-8" standalone="no"?>
<!DOCTYPE svg PUBLIC "-//W3C//DTD SVG 1.1//EN" "http://www.w3.org/Graphics/SVG/1.1/DTD/svg11.dtd">
<svg width="100%" height="100%" viewBox="0 0 200 480" version="1.1" xmlns="http://www.w3.org/2000/svg" xmlns:xlink="http://www.w3.org/1999/xlink" xml:space="preserve" xmlns:serif="http://www.serif.com/" style="fill-rule:evenodd;clip-rule:evenodd;stroke-linejoin:round;stroke-miterlimit:1.41421;">
    <g transform="matrix(1,0,0,1,-940.5,-796.5)">
        <g transform="matrix(0.154201,0,0,0.165342,927.312,782.336)">
            <path d="M730.94,1839.6C692.174,1649.3 623.82,1490.93 541.04,1344.16C479.633,1235.29 408.5,1134.8 342.68,1029.22C320.708,993.977 301.746,956.744 280.633,920.17C238.417,847.033 204.189,762.23 206.364,652.24C208.489,544.77 239.572,458.56 284.394,388.07C358.113,272.13 481.594,177.08 647.274,152.1C782.744,131.676 909.754,166.182 999.814,218.848C1073.41,261.886 1130.41,319.378 1173.73,387.128C1218.95,457.844 1250.09,541.388 1252.7,650.358C1254.04,706.188 1244.9,757.888 1232.02,800.778C1218.99,844.187 1198.03,880.473 1179.38,919.228C1142.97,994.887 1097.33,1064.21 1051.52,1133.57C915.084,1340.18 787.024,1550.88 730.944,1839.6L730.94,1839.6Z" style="fill:rgb(201,42,42);stroke:rgb(124,0,0);stroke-width:25.26px;"/>
        </g>
        <g transform="matrix(0.165342,0,0,0.165342,919.184,778.135)">
            <circle cx="729.55" cy="651.05" r="183.33" style="fill:white;"/>
        </g>
    </g>
</svg>
