
<svg width="18px" height="6px" viewBox="0 0 18 6" version="1.1" xmlns="http://www.w3.org/2000/svg" xmlns:xlink="http://www.w3.org/1999/xlink">
  <g id="Symbols" stroke="none" stroke-width="1" fill="none" fill-rule="evenodd">
    <g id="Atoms-/-Icons-/-More-h-/-Grey" transform="translate(0.000000, -6.000000)" fill="currentColor">
      <path d="M9,4.5 C10.2375,4.5 11.25,3.4875 11.25,2.25 C11.25,1.0125 10.2375,0 9,0 C7.7625,0 6.75,1.0125 6.75,2.25 C6.75,3.4875 7.7625,4.5 9,4.5 L9,4.5 Z M9,6.75 C7.7625,6.75 6.75,7.7625 6.75,9 C6.75,10.2375 7.7625,11.25 9,11.25 C10.2375,11.25 11.25,10.2375 11.25,9 C11.25,7.7625 10.2375,6.75 9,6.75 L9,6.75 Z M9,13.5 C7.7625,13.5 6.75,14.5125 6.75,15.75 C6.75,16.9875 7.7625,18 9,18 C10.2375,18 11.25,16.9875 11.25,15.75 C11.25,14.5125 10.2375,13.5 9,13.5 L9,13.5 Z" id="Shape" transform="translate(9.000000, 9.000000) rotate(90.000000) translate(-9.000000, -9.000000) "></path>
    </g>
  </g>
</svg>