
<svg width="13px" height="18px" viewBox="0 0 13 18" version="1.1" xmlns="http://www.w3.org/2000/svg" xmlns:xlink="http://www.w3.org/1999/xlink">
  <g id="Symbols" stroke="none" stroke-width="1" fill="none" fill-rule="evenodd">
    <g id="Atoms-/-Icons-/-Loop-/-Black" transform="translate(-2.000000, 0.000000)" fill="currentColor">
      <path d="M8.5,4.09090909 L8.5,6.54545455 L11.75,3.27272727 L8.5,0 L8.5,2.45454545 C4.90875,2.45454545 2,5.38363636 2,9 C2,10.2845455 2.37375,11.4790909 3.0075,12.4854545 L4.19375,11.2909091 C3.828125,10.6118182 3.625,9.82636364 3.625,9 C3.625,6.29181818 5.810625,4.09090909 8.5,4.09090909 L8.5,4.09090909 Z M13.9925,5.51454545 L12.80625,6.70909091 C13.16375,7.39636364 13.375,8.17363636 13.375,9 C13.375,11.7081818 11.189375,13.9090909 8.5,13.9090909 L8.5,11.4545455 L5.25,14.7272727 L8.5,18 L8.5,15.5454545 C12.09125,15.5454545 15,12.6163636 15,9 C15,7.71545455 14.62625,6.52090909 13.9925,5.51454545 L13.9925,5.51454545 Z" id="Shape"></path>
    </g>
  </g>
</svg>