<?xml version="1.0" standalone="no"?>
<!DOCTYPE svg PUBLIC "-//W3C//DTD SVG 20010904//EN"
 "http://www.w3.org/TR/2001/REC-SVG-20010904/DTD/svg10.dtd">
<svg version="1.0" xmlns="http://www.w3.org/2000/svg"
 width="260.000000pt" height="260.000000pt" viewBox="0 0 260.000000 260.000000"
 preserveAspectRatio="xMidYMid meet">
<metadata>
Created by potrace 1.11, written by Peter Selinger 2001-2013
</metadata>
<g transform="translate(0.000000,260.000000) scale(0.100000,-0.100000)"
fill="#000000" stroke="none">
<path d="M1146 2098 c-14 -23 -29 -123 -86 -608 -16 -140 -37 -310 -45 -377
-8 -68 -15 -130 -15 -138 0 -9 -4 -14 -9 -11 -4 3 -11 31 -15 63 -3 32 -19
158 -35 281 -31 241 -38 262 -93 262 -39 0 -51 -30 -88 -214 -16 -82 -32 -151
-34 -153 -2 -2 -21 30 -41 72 -34 71 -41 78 -88 101 -45 20 -67 24 -158 24
-94 0 -108 -2 -124 -20 -15 -16 -17 -26 -9 -48 9 -27 10 -27 128 -32 105 -4
120 -7 135 -26 9 -12 43 -84 75 -161 44 -107 63 -143 81 -151 41 -19 62 10 85
118 29 139 31 143 36 138 2 -3 18 -112 34 -244 58 -457 56 -447 80 -466 59
-48 84 -12 104 152 30 243 85 706 97 815 6 61 15 116 19 124 8 15 7 18 45
-354 15 -143 31 -277 36 -297 17 -66 79 -75 104 -14 7 17 21 82 30 143 10 62
21 111 25 108 4 -2 10 -57 14 -122 19 -347 36 -526 51 -549 18 -28 55 -31 78
-6 18 20 30 82 97 527 53 352 60 389 66 383 2 -3 17 -101 34 -218 32 -223 41
-250 85 -250 44 0 49 10 172 308 12 29 62 42 157 42 73 0 98 4 110 16 20 20
20 34 0 63 -16 22 -20 23 -139 19 -119 -3 -124 -4 -162 -33 -25 -20 -50 -56
-73 -103 -19 -39 -37 -72 -41 -72 -3 0 -13 62 -23 138 -37 290 -65 464 -76
478 -19 22 -67 18 -84 -8 -13 -21 -36 -147 -97 -548 -27 -180 -38 -242 -43
-247 -7 -7 -15 83 -31 337 -18 282 -21 309 -42 332 -23 26 -60 22 -79 -7 -10
-15 -25 -85 -38 -169 -11 -80 -24 -147 -28 -151 -9 -9 -14 25 -34 220 -48 484
-53 517 -70 536 -23 26 -60 24 -78 -3z"/>
</g>
</svg>
