<?xml version="1.0" standalone="no"?>
<!DOCTYPE svg PUBLIC "-//W3C//DTD SVG 20010904//EN"
 "http://www.w3.org/TR/2001/REC-SVG-20010904/DTD/svg10.dtd">
<svg version="1.0" xmlns="http://www.w3.org/2000/svg"
 width="700.000000pt" height="700.000000pt" viewBox="0 0 700.000000 700.000000"
 preserveAspectRatio="xMidYMid meet">
<metadata>
Created by potrace 1.14, written by Peter Selinger 2001-2017
</metadata>
<g transform="translate(0.000000,700.000000) scale(0.100000,-0.100000)"
fill="#000000" stroke="none">
<path d="M3109 5950 c-78 -23 -114 -79 -133 -205 -9 -56 -16 -110 -21 -170 -3
-33 -8 -67 -10 -75 -2 -8 -7 -44 -10 -80 -4 -36 -8 -76 -10 -90 -4 -29 -26
-213 -30 -250 -1 -14 -5 -50 -9 -80 -10 -74 -13 -103 -31 -255 -9 -71 -18
-148 -21 -170 -2 -22 -7 -56 -9 -75 -13 -117 -17 -148 -20 -170 -2 -14 -6 -50
-10 -80 -6 -57 -12 -104 -20 -167 -2 -21 -11 -96 -20 -168 -8 -71 -17 -148
-20 -170 -2 -22 -7 -62 -10 -90 -3 -27 -8 -66 -10 -85 -25 -195 -36 -284 -40
-330 -3 -30 -7 -66 -10 -80 -2 -14 -7 -54 -10 -90 -4 -36 -9 -78 -11 -95 -3
-16 -6 -43 -8 -60 -2 -16 -7 -52 -10 -80 -3 -27 -13 -108 -21 -180 -9 -71 -18
-146 -20 -165 -2 -19 -7 -57 -11 -85 -7 -58 -14 -71 -15 -29 0 16 -2 36 -3 44
-2 8 -6 38 -10 65 -6 51 -52 411 -60 475 -3 19 -7 58 -11 85 -3 28 -8 66 -11
86 -2 20 -7 53 -9 73 -3 20 -7 53 -10 74 -3 20 -10 75 -15 122 -6 47 -13 96
-15 110 -2 14 -7 50 -10 80 -3 30 -12 101 -20 156 -8 56 -17 126 -20 155 -3
30 -8 65 -10 79 -2 14 -7 50 -10 80 -19 180 -106 273 -233 247 -57 -11 -114
-68 -136 -133 -13 -40 -106 -483 -193 -919 -8 -44 -19 -86 -22 -93 -4 -7 -33
50 -66 130 -78 191 -117 265 -168 319 -82 87 -207 156 -314 174 -42 7 -593 9
-624 3 -9 -2 -33 -15 -53 -28 -68 -47 -84 -143 -34 -216 43 -63 63 -66 382
-67 l286 0 52 -26 c28 -14 64 -42 79 -61 15 -19 104 -218 197 -442 93 -225
177 -419 186 -433 61 -94 212 -86 265 13 10 19 40 144 56 233 4 20 31 156 71
354 2 11 11 56 20 100 18 89 34 118 35 64 0 -40 4 -66 43 -364 3 -16 8 -57 12
-90 3 -33 8 -69 10 -80 3 -11 7 -43 10 -71 2 -28 6 -60 8 -71 2 -10 7 -46 11
-78 4 -33 8 -71 10 -85 2 -14 6 -45 10 -70 3 -25 10 -76 15 -115 5 -38 12 -94
15 -124 3 -30 8 -64 10 -75 2 -12 7 -46 10 -77 3 -31 7 -65 9 -75 2 -11 7 -48
11 -84 4 -36 8 -67 10 -70 2 -3 6 -41 10 -85 4 -44 8 -82 10 -85 2 -3 6 -34
10 -70 3 -36 8 -72 10 -80 2 -8 7 -44 10 -80 16 -156 43 -232 96 -273 96 -72
222 -27 263 96 15 44 30 152 61 422 11 102 16 141 20 175 3 19 7 58 10 85 6
50 13 108 20 155 2 14 7 54 10 90 4 36 8 72 10 80 2 8 6 44 9 80 4 36 9 76 11
90 3 14 7 50 10 80 4 30 8 71 10 90 3 19 7 58 10 85 3 28 7 66 10 85 2 19 7
55 10 80 3 25 7 61 10 80 3 19 7 58 10 85 5 52 12 105 20 165 4 34 44 364 50
425 2 17 11 89 19 160 9 72 19 153 22 180 3 28 8 64 10 80 2 17 15 127 30 245
14 118 27 226 29 240 1 14 3 40 4 59 2 67 11 25 26 -124 5 -49 12 -116 20
-185 2 -19 7 -64 10 -100 3 -36 7 -81 10 -100 13 -110 16 -141 21 -195 3 -33
7 -71 9 -85 2 -14 7 -54 10 -90 3 -36 7 -81 10 -100 3 -19 7 -60 10 -90 3 -30
8 -75 10 -100 3 -25 7 -72 10 -105 3 -33 8 -71 10 -85 2 -14 6 -54 10 -90 3
-36 8 -81 10 -100 2 -19 7 -62 10 -95 3 -33 8 -78 11 -100 10 -92 14 -133 19
-185 13 -141 26 -189 62 -238 79 -106 236 -81 290 47 16 38 18 47 33 136 5 33
12 69 14 81 2 12 7 45 11 74 4 29 8 61 10 71 2 9 7 39 11 66 5 26 9 50 9 53 1
3 5 32 10 65 5 33 10 62 10 65 1 3 5 28 10 55 4 28 9 59 11 70 2 11 7 43 10
70 11 92 20 78 28 -45 4 -52 9 -117 11 -145 6 -72 16 -210 20 -285 4 -63 11
-158 20 -270 2 -30 7 -93 10 -140 3 -47 8 -110 10 -140 3 -30 7 -93 10 -140 4
-47 8 -112 11 -145 2 -33 6 -91 9 -130 4 -68 11 -155 21 -285 3 -36 7 -87 9
-115 9 -149 20 -187 65 -238 78 -90 215 -66 269 45 11 24 23 59 26 78 3 19 8
42 10 50 2 8 7 35 10 60 13 94 86 566 90 580 2 8 6 38 10 65 3 28 8 61 10 75
7 42 65 423 70 455 2 17 13 86 24 155 11 69 23 143 26 165 10 69 65 419 70
445 2 14 7 45 10 70 3 25 7 56 10 70 7 35 13 76 21 135 3 28 7 52 9 55 2 3 6
28 10 55 3 28 14 102 24 165 20 128 26 120 46 -55 3 -27 7 -57 10 -65 2 -8 6
-42 10 -75 3 -33 10 -87 15 -120 15 -104 22 -149 25 -180 2 -16 6 -48 9 -70 3
-22 13 -93 21 -157 9 -65 18 -125 19 -135 2 -10 7 -40 10 -68 34 -268 41 -306
66 -355 38 -74 93 -112 165 -112 96 0 144 53 219 237 31 77 61 149 67 160 5
11 59 139 119 285 159 382 133 364 527 366 156 1 298 5 316 8 58 11 117 89
117 153 0 47 -37 108 -79 131 -39 22 -47 23 -355 22 -278 -1 -322 -3 -369 -19
-130 -45 -214 -104 -296 -210 -14 -19 -67 -131 -118 -250 -51 -119 -92 -209
-93 -201 0 13 -7 59 -25 191 -3 20 -7 54 -10 75 -2 21 -13 104 -25 184 -24
171 -28 200 -35 260 -3 25 -12 90 -20 145 -19 139 -27 196 -31 225 -1 14 -8
59 -14 100 -6 41 -13 93 -16 115 -2 22 -7 51 -9 65 -2 14 -7 52 -11 85 -3 33
-8 62 -9 65 -2 3 -6 37 -10 75 -4 39 -9 72 -10 75 -2 3 -6 33 -10 65 -13 122
-42 183 -104 219 -43 25 -119 25 -163 -1 -70 -41 -97 -115 -133 -370 -3 -21
-8 -49 -11 -63 -2 -14 -6 -41 -9 -60 -3 -19 -6 -44 -9 -55 -2 -11 -7 -45 -11
-75 -4 -30 -9 -64 -11 -75 -3 -11 -7 -38 -9 -60 -3 -22 -7 -51 -10 -65 -3 -14
-7 -41 -10 -60 -3 -19 -7 -46 -10 -60 -2 -14 -7 -45 -10 -70 -3 -25 -12 -83
-20 -130 -8 -47 -17 -103 -20 -125 -2 -22 -7 -51 -9 -65 -2 -14 -10 -59 -16
-100 -6 -41 -13 -86 -16 -100 -2 -14 -6 -45 -9 -70 -3 -25 -8 -52 -10 -60 -4
-13 -17 -96 -30 -195 -3 -16 -7 -43 -9 -60 -14 -85 -35 -224 -40 -255 -3 -19
-12 -80 -21 -135 -9 -55 -18 -109 -20 -120 -1 -11 -6 -44 -10 -72 -4 -29 -11
-53 -16 -53 -5 0 -9 24 -10 53 -1 54 -3 85 -13 222 -12 149 -15 200 -21 285
-3 47 -7 108 -10 135 -2 28 -7 84 -10 125 -3 41 -7 106 -10 145 -3 38 -8 103
-10 145 -13 187 -15 219 -20 275 -2 33 -7 96 -10 140 -3 44 -8 107 -10 140 -3
33 -7 92 -10 130 -17 228 -28 275 -74 319 -95 91 -244 47 -281 -82 -9 -33 -40
-202 -55 -307 -12 -76 -14 -90 -30 -190 -9 -55 -18 -113 -21 -130 -2 -16 -6
-41 -9 -55 -4 -25 -13 -81 -20 -130 -5 -34 -11 -71 -26 -160 l-13 -75 -7 60
c-4 33 -10 89 -14 125 -4 36 -8 76 -10 90 -2 14 -7 57 -10 95 -3 39 -8 87 -11
108 -2 20 -6 54 -8 75 -5 35 -8 70 -21 202 -3 30 -7 71 -10 90 -2 19 -7 58 -9
85 -3 28 -8 73 -11 100 -2 28 -7 75 -10 105 -3 30 -7 71 -10 90 -2 19 -7 64
-10 100 -4 36 -8 76 -10 90 -2 14 -6 57 -10 95 -9 105 -14 152 -19 183 -2 15
-8 63 -12 107 -4 44 -8 87 -9 95 -1 8 -5 51 -10 95 -4 44 -9 94 -11 110 -2 17
-6 55 -9 85 -18 169 -45 232 -115 268 -46 23 -76 26 -121 12z"/>
</g>
</svg>
