<svg xmlns="http://www.w3.org/2000/svg" viewBox="0 0 8503.94 2990.6"><defs><style>.cls-1{fill:#fff;}.cls-2{fill:#141424;}.cls-3{fill:#ff3546;}</style></defs><title>Mesa de trabajo 13</title><g id="Imagotype"><rect class="cls-1" width="8503.94" height="2990.6"/><path class="cls-2" d="M3648.4,1524V1404.58l-.4-.15c-12-4.31-34.84-6.26-51-6.26-30.3,0-58.64,8.63-81.95,24.95-22.33,15.62-38.16,37.45-44.63,61.47h-6.91v-78.41H3336.61v492.7h130.9V1626c0-67,46.63-110.31,118.79-110.31,20.64,0,51,4,61.26,8Z"/><path class="cls-2" d="M3881.61,1395.48c-71.86,0-131.8,24.09-173.34,69.66s-63.43,111.17-63.43,189.84c0,78.45,21.78,143.2,63,187.23s102,67.36,175.56,67.36c59,0,111-14,150.39-40.65,39.23-26.46,65.09-64.65,74.78-110.44l.16-.75H3986.79l-.16.38c-13.81,32.5-49.2,50.41-99.68,50.41-67.09,0-109.88-45.18-111.65-117.9v-6h337.28v-40.28c0-76.69-21.1-140-61-183S3952.83,1395.48,3881.61,1395.48Zm-105.82,205c2.29-30.82,13.47-57,32.35-75.62s44.58-28.73,73.91-28.73c60,0,98.94,40,101.83,104.35Z"/><path class="cls-2" d="M4369.22,1395.48c-71.85,0-131.8,24.09-173.34,69.66s-63.42,111.17-63.42,189.84c0,78.45,21.77,143.2,63,187.23s102,67.36,175.57,67.36c58.94,0,110.95-14,150.39-40.65,39.23-26.46,65.09-64.65,74.78-110.44l.16-.75H4474.41l-.16.38c-13.81,32.5-49.2,50.41-99.68,50.41-67.1,0-109.88-45.18-111.66-117.9v-6H4600.2v-40.28c0-76.69-21.11-140-61-183S4440.45,1395.48,4369.22,1395.48Zm-105.81,205c2.29-30.82,13.46-57,32.35-75.62s44.58-28.73,73.91-28.73c60,0,98.93,40,101.82,104.35Z"/><path class="cls-3" d="M4911.92,1611.6l-92.22-20.06c-45.58-10.27-65.91-25.2-65.91-48.39,0-30.33,32.91-51.51,80-51.51,46.6,0,77.23,18.49,84,50.74l.11.49h121l-.05-.67c-3.56-47-23.36-83.56-58.85-108.79s-84.92-37.93-147.17-37.93c-122.7,0-205.14,62.56-205.14,155.68,0,38.27,11.54,68.38,35.27,92.06,23.53,23.48,58.5,40.06,106.91,50.69l89.11,20c42.49,9.21,61.44,23.85,61.44,47.51,0,31.08-34,52-84.47,52s-82.52-18-92.53-52.14l-.13-.45H4615.7l.06.68c4.45,47.17,25.81,84,63.49,109.62s89.42,38.43,154.12,38.43c129.9,0,217.16-65.43,217.16-162.81,0-37.07-10.95-65.68-33.49-87.43C4994.81,1637.85,4960.43,1622.24,4911.92,1611.6Z"/><path class="cls-3" d="M5307.39,1395.48c-73.69,0-135.09,23.73-177.56,68.66s-65,110-65,188.17c0,161.09,90.67,257.26,242.56,257.26S5550,1813.4,5550,1652.31c0-78.31-22.47-143.45-65-188.35S5381.13,1395.48,5307.39,1395.48Zm-79.75,146.69c18.57-25.76,46.16-39.39,79.75-39.39,33.43,0,60.95,13.63,79.58,39.39s28.51,63.88,28.51,110.14c0,95.31-39.4,150-108.09,150-34.34,0-61.23-13.16-79.91-39.11s-28.18-63.26-28.18-110.86C5199.3,1606,5209.1,1567.9,5227.64,1542.17Z"/><path class="cls-3" d="M5905.62,1690.17c0,67-36,105.44-98.74,105.44-59.6,0-89.82-34.28-89.82-101.87V1406.18h-130.9v321c0,55.9,16,102.27,46.4,134.09,30.14,31.62,73.78,48.32,126.2,48.32,71.19,0,119.6-30.13,143.89-89.55h7v78.86h126.91v-492.7H5905.62Z"/><path class="cls-3" d="M6381.31,1395.48c-70,0-121.74,31.8-145.65,89.57h-7v-78.87H6101.79v492.7h130.89v-284c0-31.74,8.94-58.45,25.86-77.27,17.06-19,41.49-29,70.65-29,30.14,0,53,8.78,67.81,26.07,14.61,17,22,42.8,22,76.68v287.56h130.9v-318.3C6549.92,1461.22,6490,1395.48,6381.31,1395.48Z"/><path class="cls-3" d="M6942.61,1218.6v266h-6.55c-25.47-54.12-80.39-86.42-147-86.42-123.8,0-200.69,97.2-200.69,253.7,0,77.13,18.57,141.51,53.71,186.18s86,68.39,147,68.39c67.83,0,124.07-31.62,150.55-84.64h7v77.08h126.9V1218.6Zm-109.44,578.34c-69.08,0-110.31-54.07-110.31-144.63,0-44,10.18-80.62,29.44-105.78s47.2-38.4,80.87-38.4c68.34,0,110.78,55.42,110.78,144.62,0,44.06-10.21,80.65-29.51,105.78S6867,1796.94,6833.17,1796.94Z"/><path class="cls-2" d="M3313.35,1219c-19.84-3.29-41.73-4.89-66.94-4.89-115.33,0-169,46.91-169,147.65v49.28h-92.91a137.06,137.06,0,0,0-21.5,1.86l-.55.1c-22.31,3.79-42.83,12.82-61.11,24.86-24,16.16-44.63,38-56.72,66.42l-9.59,23-33.76,81-1.47,3.54-23.91-175.35-46.14-337.29a198.53,198.53,0,0,0-3.86-20.92,62.66,62.66,0,0,0-8.86-16.88,50.87,50.87,0,0,0-12.73-12.1,48,48,0,0,0-26.3-7.91q-1.61,0-3.18.12a48.49,48.49,0,0,0-22.83,7.62c-10.82,7.37-14.41,14-17.43,19-7.59,14.83-9,25.12-11.75,40.47l-106.64,689.61-41.07-567.18c-.85-11.29-1.86-20.22-4-29.39a66.23,66.23,0,0,0-6.3-16.81,49.86,49.86,0,0,0-11.16-13.78,46.88,46.88,0,0,0-59.79-1.2c-10.13,8.51-12.33,14.4-14.85,19-5.92,13.3-7.39,22.89-10,37.65l-44,277.12-68.09-647.41c-1.21-11.15-2.48-20-4.88-28.92a65.87,65.87,0,0,0-6.5-16.22,49.88,49.88,0,0,0-10.9-13.22,46.8,46.8,0,0,0-60.65-.27c-10.2,9.17-12.06,15.19-14.43,19.92-5.35,13.51-6.44,23.08-8.48,38l-116.8,976.12-64.36-502.11c-1.6-11.79-3.33-21.46-7.12-31.92a63.16,63.16,0,0,0-10.23-18.35,48.75,48.75,0,0,0-75-1.76c-8.66,10.06-11,17.14-13.85,24.55a176.8,176.8,0,0,0-6.25,23.46L1801.85,1600l-39.88-95.7c-12.08-28.45-32.75-50.26-56.72-66.42-24.15-15.91-52.22-26.6-83.16-26.82H1475.72a45.29,45.29,0,1,0,0,90.58h146.37c8-.2,21.51,3.83,32.91,11.61,11.57,7.54,20.47,18.4,23.37,25.89l96.73,232a45.27,45.27,0,0,0,86.16-8.42l44.65-220.19,76,592.9c1.47,11.2,3,20.16,5.81,29.38a66.53,66.53,0,0,0,7.54,16.62,50.69,50.69,0,0,0,11.68,12.71,47.06,47.06,0,0,0,57.52-.1c10.58-8.68,13-15.12,15.57-20,6-14.16,7.08-24,9.17-39l112.39-939.12,61.89,588.52c1.25,11.37,2.61,20.52,5.43,30.11a63.83,63.83,0,0,0,7.8,17.32,50,50,0,0,0,12.16,13,47.23,47.23,0,0,0,55.5.61c10.57-7.88,13.57-14.22,16.36-19,6.84-14.13,8.31-24.09,11-39.12L2408,1558.77l41.55,573.87c.85,11.22,1.83,20.11,4,29.26a66.55,66.55,0,0,0,6.18,16.64,49.76,49.76,0,0,0,11,13.81,47.22,47.22,0,0,0,30.46,11.61h.41a47,47,0,0,0,29.49-10.46c7.12-6.11,10.24-10.81,12.33-14.68.87-1.6,1.57-3.06,2.29-4.41,5.76-13.2,7.18-22.71,9.71-37.48l50.06-323.64,69.27-447.91L2695.45,1517l30,219.15c1.73,12.15,3.74,22.35,8.34,33.53a62.87,62.87,0,0,0,12.19,19c6.25,7,19.66,16,36.47,15.94a50.92,50.92,0,0,0,34.3-13.62,74.07,74.07,0,0,0,5.58-5.91q1.56-1.62,3-3.39a44.59,44.59,0,0,0,6.19-10.53l1.63-3.91.3-.63c.67-1.55,1.3-3.1,1.91-4.67l17.79-42.68,57.36-137.62.37-.87,17.36-41.66c2.9-7.5,11.81-18.35,23.38-25.89,11.23-7.68,24.48-11.69,32.54-11.61h93.27v397.22h130.9V1501.66h101.58v-90.58H3205.59v-39.93c0-43,20.61-61.3,68.89-61.3a354.08,354.08,0,0,1,38.7,2.23l.68.08v-93Z"/></g></svg>