<svg xmlns="http://www.w3.org/2000/svg" viewBox="0 0 1734.19 1734.19"><defs><style>.cls-1{fill:#fff;}.cls-2{fill:#ff3546;}</style></defs><title>Mesa de trabajo 27</title><g id="Isotype_3" data-name="Isotype 3"><rect class="cls-1" width="1734.19" height="1734.19"/><path class="cls-2" d="M1224.39,831.05a19.85,19.85,0,0,0-2.06-.11H1159.5a59.54,59.54,0,0,0-9.23.8l-.24,0a68.68,68.68,0,0,0-26.23,10.68c-10.29,6.93-19.16,16.3-24.35,28.51l-4.11,9.88-14.5,34.76-.63,1.51L1070,841.86l-19.81-144.79a85.56,85.56,0,0,0-1.65-9,26.89,26.89,0,0,0-3.81-7.24,21.67,21.67,0,0,0-5.46-5.2,20.58,20.58,0,0,0-11.29-3.39c-.46,0-.92,0-1.37,0a20.69,20.69,0,0,0-9.79,3.27,22.33,22.33,0,0,0-7.49,8.17c-3.26,6.37-3.88,10.79-5,17.37l-45.78,296L940.83,753.68a78.52,78.52,0,0,0-1.73-12.62,28.48,28.48,0,0,0-2.7-7.22,21.42,21.42,0,0,0-4.79-5.91,20.16,20.16,0,0,0-25.67-.52,22.23,22.23,0,0,0-6.37,8.17c-2.54,5.71-3.17,9.83-4.28,16.16l-18.87,119L847.19,592.8a80.17,80.17,0,0,0-2.09-12.42,28.86,28.86,0,0,0-2.79-7,21.52,21.52,0,0,0-4.68-5.68,20.11,20.11,0,0,0-26-.11,22.19,22.19,0,0,0-6.19,8.55c-2.3,5.8-2.76,9.91-3.64,16.31l-50.14,419L724,796a63.23,63.23,0,0,0-3.06-13.7,27.23,27.23,0,0,0-4.39-7.88,20.94,20.94,0,0,0-32.18-.76,30.22,30.22,0,0,0-5.94,10.54,74.78,74.78,0,0,0-2.68,10.07L651.86,912,634.74,871c-5.19-12.21-14.06-21.57-24.35-28.51S588,831,574.69,830.94H511.86a19.44,19.44,0,1,0,0,38.88h62.83c3.45-.08,9.24,1.64,14.13,5s8.79,7.89,10,11.11l41.52,99.61a19.44,19.44,0,0,0,37-3.62l19.16-94.51,32.62,254.5a75,75,0,0,0,2.5,12.61,28.34,28.34,0,0,0,3.23,7.14,21.94,21.94,0,0,0,5,5.45,20.2,20.2,0,0,0,24.69,0,22.11,22.11,0,0,0,6.68-8.59c2.59-6.07,3-10.28,3.94-16.76l48.24-403.12L850,991.21a71.62,71.62,0,0,0,2.33,12.93,27.32,27.32,0,0,0,3.35,7.44,21.5,21.5,0,0,0,5.22,5.57,20.27,20.27,0,0,0,23.82.26,22.26,22.26,0,0,0,7-8.18c2.94-6.07,3.57-10.34,4.73-16.79L912,894.34l17.84,246.34a80.64,80.64,0,0,0,1.71,12.56,28.42,28.42,0,0,0,2.65,7.14,21.19,21.19,0,0,0,4.72,5.93,20.27,20.27,0,0,0,13.08,5h.17a20.21,20.21,0,0,0,12.66-4.49,21.31,21.31,0,0,0,5.29-6.3c.38-.69.67-1.31,1-1.89,2.47-5.67,3.08-9.75,4.16-16.09l21.49-138.93,29.74-192.26,8.9,65.08,12.87,94.07a56.52,56.52,0,0,0,3.58,14.39,26.73,26.73,0,0,0,5.23,8.18,21.39,21.39,0,0,0,30.38,1,31.9,31.9,0,0,0,2.39-2.53c.45-.47.87-1,1.28-1.46a19,19,0,0,0,2.65-4.52l.7-1.68.13-.27c.29-.66.56-1.33.82-2l7.64-18.32,24.62-59.08.15-.37,7.46-17.89c1.24-3.21,5.07-7.87,10-11.11s10.51-5,14-5h63a19.44,19.44,0,0,0,2.06-38.78Z"/></g></svg>